HIERARCHY
ROOT Hips
{
 OFFSET 0.000000 0.000000 0.000000
 CHANNELS 6 Xposition Yposition Zposition Yrotation Xrotation Zrotation
 JOINT Chest
 {
  OFFSET 0.000000 9.303000 0.001900
  CHANNELS 3 Yrotation Xrotation Zrotation
  JOINT Chest2
  {
   OFFSET 0.000000 9.301100 -0.003900
   CHANNELS 3 Yrotation Xrotation Zrotation
   JOINT Chest3
   {
    OFFSET 0.000000 9.262800 0.000000
    CHANNELS 3 Yrotation Xrotation Zrotation
    JOINT Chest4
    {
     OFFSET 0.000000 9.253300 0.000000
     CHANNELS 3 Yrotation Xrotation Zrotation
     JOINT Neck
     {
      OFFSET 0.000000 14.010300 0.000000
      CHANNELS 3 Yrotation Xrotation Zrotation
      JOINT Head
      {
       OFFSET 0.000000 8.657600 -0.008300
       CHANNELS 3 Yrotation Xrotation Zrotation
       End Site
       {
        OFFSET 0.000000 16.540200 -0.004400
       }
      }
     }
     JOINT RightCollar
     {
      OFFSET -2.834100 9.267700 0.000000
      CHANNELS 3 Yrotation Xrotation Zrotation
      JOINT RightShoulder
      {
       OFFSET -13.135200 0.000000 0.000000
       CHANNELS 3 Yrotation Xrotation Zrotation
       JOINT RightElbow
       {
        OFFSET 0.000000 -28.893500 0.000000
        CHANNELS 3 Yrotation Xrotation Zrotation
        JOINT RightWrist
        {
         OFFSET 0.000000 -23.344000 0.000000
         CHANNELS 3 Yrotation Xrotation Zrotation
         End Site
         {
          OFFSET 0.000000 -17.223000 0.000000
         }
        }
       }
      }
     }
     JOINT LeftCollar
     {
      OFFSET 2.834100 9.267700 0.000000
      CHANNELS 3 Yrotation Xrotation Zrotation
      JOINT LeftShoulder
      {
       OFFSET 13.135200 0.000000 0.000000
       CHANNELS 3 Yrotation Xrotation Zrotation
       JOINT LeftElbow
       {
        OFFSET 0.000000 -28.893500 0.000000
        CHANNELS 3 Yrotation Xrotation Zrotation
        JOINT LeftWrist
        {
         OFFSET 0.000000 -23.344000 0.000000
         CHANNELS 3 Yrotation Xrotation Zrotation
         End Site
         {
          OFFSET 0.000000 -17.223000 0.000000
         }
        }
       }
      }
     }
    }
   }
  }
 }
 JOINT RightHip
 {
  OFFSET -7.547200 -0.009500 -0.001000
  CHANNELS 3 Yrotation Xrotation Zrotation
  JOINT RightKnee
  {
   OFFSET 0.000000 -39.762800 0.000900
   CHANNELS 3 Yrotation Xrotation Zrotation
   JOINT RightAnkle
   {
    OFFSET 0.000000 -38.588200 0.001600
    CHANNELS 3 Yrotation Xrotation Zrotation
    JOINT RightToe
    {
     OFFSET 0.000000 -4.693300 10.419700
     CHANNELS 3 Yrotation Xrotation Zrotation
     End Site
     {
      OFFSET 0.000000 -1.379900 5.669300
     }
    }
   }
  }
 }
 JOINT LeftHip
 {
  OFFSET 7.547200 -0.009500 -0.001000
  CHANNELS 3 Yrotation Xrotation Zrotation
  JOINT LeftKnee
  {
   OFFSET 0.000000 -39.762800 0.000900
   CHANNELS 3 Yrotation Xrotation Zrotation
   JOINT LeftAnkle
   {
    OFFSET 0.000000 -38.588200 0.001600
    CHANNELS 3 Yrotation Xrotation Zrotation
    JOINT LeftToe
    {
     OFFSET 0.000000 -4.693300 10.419700
     CHANNELS 3 Yrotation Xrotation Zrotation
     End Site
     {
      OFFSET 0.000000 -1.379900 5.669300
     }
    }
   }
  }
 }
}
MOTION
Frames: 7
Frame Time: 0.008333
-9.214474 45.654384 28.121951 164.427127 -31.929893 -0.091259 5.966741 11.797735 0.805104 0.522823 0.964970 0.071644 0.888647 1.638036 0.126966 5.923612 10.637068 1.299889 4.570651 23.715325 2.658348 4.358218 -0.064902 1.842749 15.075767 -2.690621 -7.884701 9.353078 -38.771787 -25.509715 -30.993822 -69.765355 35.891451 -16.885579 -11.268657 -21.897940 -6.038749 -4.359027 -1.057830 -9.151582 -12.179550 3.582963 -36.601867 -40.578776 3.959927 -2.424900 -12.297725 13.793766 -2.554269 -57.387557 0.224271 -55.244431 85.571331 -57.300940 -10.336679 -5.696691 2.132599 0.277908 -0.311265 0.315413 1.928501 -55.504723 15.608477 58.520225 76.805220 53.333314 -12.046266 -1.920258 4.593540 0.457937 0.874910 0.267875
-9.228586 45.650315 28.074022 164.495216 -31.866034 -0.084336 6.030111 11.762929 0.799155 0.525507 0.959756 0.072573 0.893253 1.629287 0.128529 5.963553 10.595719 1.312937 4.516506 23.633191 2.461801 4.341427 -0.169082 1.640029 14.724210 -2.594891 -7.820777 8.381455 -38.302246 -24.735416 -32.462101 -73.186814 37.916495 -16.928338 -11.901256 -21.477012 -6.047052 -4.209844 -1.130795 -9.016969 -11.998611 3.701136 -36.822737 -41.129279 4.228434 -2.329035 -12.555953 13.908784 -2.526022 -57.467405 0.165580 -56.324761 85.604525 -58.442535 -10.362821 -5.725383 2.173629 0.299283 -0.342148 0.342113 2.284063 -55.615974 15.277392 58.848953 76.746218 53.793247 -12.160771 -1.982456 4.662881 0.455691 0.888293 0.253035
-9.243574 45.645504 28.028143 164.574107 -31.791197 -0.098308 6.079156 11.711890 0.805425 0.527696 0.954374 0.073805 0.897004 1.620356 0.130606 5.999075 10.554457 1.329385 4.457704 23.568147 2.255729 4.322160 -0.252475 1.428385 14.388459 -2.497587 -7.755428 7.489864 -37.872375 -24.047660 -34.903923 -76.424653 40.808367 -17.005503 -12.417512 -21.257690 -6.046241 -4.056476 -1.197192 -8.804477 -11.858669 3.761553 -36.916849 -41.628643 4.316270 -2.260027 -12.773245 13.993699 -2.543886 -57.552640 0.133535 -57.274662 85.638584 -59.453656 -10.379512 -5.757746 2.217077 0.290090 -0.366136 0.335610 2.563669 -55.741423 14.994123 58.994970 76.750876 54.075363 -12.203483 -2.020323 4.705717 0.467348 0.885025 0.245915
-9.258193 45.639365 27.985362 164.659979 -31.706254 -0.143517 6.114240 11.646390 0.834694 0.528704 0.948800 0.075398 0.847605 1.609403 0.124222 6.076914 10.515652 1.357590 4.398239 23.522384 2.042363 4.304387 -0.312245 1.209523 14.076496 -2.400349 -7.690365 6.654799 -37.529809 -23.390218 -38.742379 -79.424266 45.032929 -17.065376 -12.839967 -21.238234 -6.028701 -3.901014 -1.258504 -8.532587 -11.757670 3.769133 -36.877305 -42.070435 4.241637 -2.233522 -12.963817 14.061155 -2.619966 -57.642066 0.148317 -58.137581 85.668816 -60.381695 -10.345996 -5.792594 2.262701 0.229148 -0.377309 0.277814 2.721657 -55.879019 14.811983 59.142309 76.778225 54.332609 -12.219059 -2.038736 4.733301 0.479501 0.866839 0.243747
-9.273884 45.631150 27.946420 164.763312 -31.608571 -0.219511 6.126481 11.564582 0.880447 0.528685 0.943084 0.077358 0.874949 1.600918 0.132438 6.011765 10.494396 1.355768 4.393333 23.482187 1.837261 4.284912 -0.344001 0.988822 13.835089 -2.319808 -7.613396 5.805555 -37.348350 -22.665490 -44.580667 -82.116807 51.286037 -17.065623 -13.211283 -21.367974 -5.950906 -3.762469 -1.299396 -8.222537 -11.691817 3.731715 -36.720062 -42.449768 4.038649 -2.233723 -13.138507 14.111727 -2.749821 -57.742664 0.202253 -59.019684 85.688373 -61.327076 -10.298522 -5.822453 2.304340 0.221326 -0.391962 0.268540 2.738479 -56.027548 14.739672 59.336315 76.808895 54.593394 -12.236511 -2.035969 4.745221 0.498649 0.836764 0.249527
-9.296178 45.619902 27.911523 164.896145 -31.491032 -0.299879 6.081198 11.459997 0.903626 0.549362 0.941549 0.083797 0.898145 1.592491 0.140456 6.026121 10.448084 1.388304 4.293389 23.493233 1.616995 4.257584 -0.345348 0.769923 13.522528 -2.211966 -7.538832 4.893247 -37.365227 -21.809003 -53.988396 -84.425849 61.207148 -16.994592 -13.562543 -21.578579 -5.953909 -3.609360 -1.351958 -7.897896 -11.651084 3.662634 -36.481892 -42.770570 3.753111 -2.231804 -13.298231 14.153872 -2.910262 -57.863428 0.248398 -59.845690 85.703979 -62.215047 -10.301759 -5.859439 2.338848 0.200995 -0.394658 0.256111 2.656106 -56.170154 14.714928 59.461732 76.824052 54.739473 -12.291152 -2.047439 4.730589 0.555820 0.842865 0.271252
-9.316563 45.611436 27.873574 164.975873 -31.424189 -0.379494 6.041168 11.394241 0.943392 0.609580 0.945468 0.099712 0.896858 1.583283 0.144675 6.058940 10.402980 1.429296 4.184497 23.531231 1.394832 4.217738 -0.314056 0.555106 13.222452 -2.107536 -7.456139 3.964545 -37.527727 -20.859361 -71.255746 -86.217958 79.061256 -16.873318 -13.914282 -21.814244 -5.959300 -3.461003 -1.403631 -7.583756 -11.629699 3.577309 -36.195072 -43.033889 3.427784 -2.197229 -13.450185 14.190899 -3.125392 -57.927233 0.381474 -60.481445 85.719213 -62.932608 -10.323749 -5.900484 2.376268 0.162176 -0.391707 0.238166 2.460444 -56.283030 14.832281 59.866110 76.872621 55.109408 -12.296733 -2.000951 4.736333 0.571671 0.761621 0.275086
